inDegrees=no
DataType=double
version=3
OpenSimVersion=4.4-2022-10-11-798caa840
endheader
time	elv_angle	shoulder_elv	shoulder_rot	elbow_flexion	pro_sup	deviation	flexion
2.4020851434	0.8818019629	0.6806787848	0.5749073625	1.7861013412	0.0000000000	0.0000000000	0.0000000000
2.4062554301	0.8818019629	0.6806787848	0.5749073625	1.7861013412	0.0000000000	0.0000000000	0.0000000000
2.4104257168	0.8818019629	0.6806787848	0.5749073625	1.7861013412	0.0000000000	0.0000000000	0.0000000000
2.4145960035	0.8818019629	0.6806787848	0.5749073625	1.7861013412	0.0000000000	0.0000000000	0.0000000000
2.4187662902	0.8818019629	0.6806787848	0.5749073625	1.7861013412	0.0000000000	0.0000000000	0.0000000000
2.4229365769	0.8818019629	0.6806787848	0.5749073625	1.7861013412	0.0000000000	0.0000000000	0.0000000000
2.4271068636	0.8818019629	0.6806787848	0.5749073625	1.7861013412	0.0000000000	0.0000000000	0.0000000000
2.4312771503	0.8818019629	0.6806787848	0.5749073625	1.7861013412	0.0000000000	0.0000000000	0.0000000000
2.4354474370	0.8818019629	0.6806787848	0.5749073625	1.7861013412	0.0000000000	0.0000000000	0.0000000000
2.4396177237	0.8818019629	0.6806787848	0.5749073625	1.7861013412	0.0000000000	0.0000000000	0.0000000000
2.4437880104	0.8818019629	0.6806787848	0.5749073625	1.7861013412	0.0000000000	0.0000000000	0.0000000000
2.4479582971	0.8818019629	0.6806787848	0.5749073625	1.7861013412	0.0000000000	0.0000000000	0.0000000000
2.4521285838	0.8818019629	0.6806787848	0.5749073625	1.7861013412	0.0000000000	0.0000000000	0.0000000000
2.4562988705	0.8818019629	0.6806787848	0.5749073625	1.7861013412	0.0000000000	0.0000000000	0.0000000000
2.4604691573	0.8818019629	0.6806787848	0.5749073625	1.7861013412	0.0000000000	0.0000000000	0.0000000000
2.4646394440	0.8818019629	0.6806787848	0.5749073625	1.7861013412	0.0000000000	0.0000000000	0.0000000000
2.4688097307	0.8818019629	0.6806787848	0.5749073625	1.7861013412	0.0000000000	0.0000000000	0.0000000000
2.4729800174	0.8818019629	0.6806787848	0.5749073625	1.7861013412	0.0000000000	0.0000000000	0.0000000000
2.4771503041	0.8818019629	0.6806787848	0.5749073625	1.7861013412	0.0000000000	0.0000000000	0.0000000000
2.4813205908	0.8818019629	0.6806787848	0.5749073625	1.7861013412	0.0000000000	0.0000000000	0.0000000000
2.4854908775	0.8818019629	0.6806787848	0.5749073625	1.7861013412	0.0000000000	0.0000000000	0.0000000000
2.4896611642	0.8818019629	0.6806787848	0.5749073625	1.7861013412	0.0000000000	0.0000000000	0.0000000000
2.4938314509	0.8818019629	0.6806787848	0.5749073625	1.7861013412	0.0000000000	0.0000000000	0.0000000000
2.4980017376	0.8818019629	0.6806787848	0.5749073625	1.7861013412	0.0000000000	0.0000000000	0.0000000000
2.5021720243	0.8818019629	0.6806787848	0.5749073625	1.7861013412	0.0000000000	0.0000000000	0.0000000000
2.5063423110	0.8818019629	0.6806787848	0.5749073625	1.7861013412	0.0000000000	0.0000000000	0.0000000000
2.5105125977	0.8818019629	0.6806787848	0.5749073625	1.7861013412	0.0000000000	0.0000000000	0.0000000000
2.5146828844	0.8818019629	0.6806787848	0.5749073625	1.7861013412	0.0000000000	0.0000000000	0.0000000000
2.5188531712	0.8818019629	0.6806787848	0.5749073625	1.7861013412	0.0000000000	0.0000000000	0.0000000000
2.5230234579	0.8818019629	0.6806787848	0.5749073625	1.7861013412	0.0000000000	0.0000000000	0.0000000000
2.5271937446	0.8818019629	0.6806787848	0.5749073625	1.7861013412	0.0000000000	0.0000000000	0.0000000000
2.5313640313	0.8818019629	0.6806787848	0.5749073625	1.7861013412	0.0000000000	0.0000000000	0.0000000000
2.5355343180	0.8818019629	0.6806787848	0.5749073625	1.7861013412	0.0000000000	0.0000000000	0.0000000000
2.5397046047	0.8818019629	0.6806787848	0.5749073625	1.7861013412	0.0000000000	0.0000000000	0.0000000000
2.5438748914	0.8818019629	0.6806787848	0.5749073625	1.7861013412	0.0000000000	0.0000000000	0.0000000000
2.5480451781	0.8818019629	0.6806787848	0.5749073625	1.7861013412	0.0000000000	0.0000000000	0.0000000000
2.5522154648	0.8818019629	0.6806787848	0.5749073625	1.7861013412	0.0000000000	0.0000000000	0.0000000000
2.5563857515	0.8818019629	0.6806787848	0.5749073625	1.7861013412	0.0000000000	0.0000000000	0.0000000000
2.5605560382	0.8818019629	0.6806787848	0.5749073625	1.7861013412	0.0000000000	0.0000000000	0.0000000000
2.5647263249	0.8818019629	0.6806787848	0.5749073625	1.7861013412	0.0000000000	0.0000000000	0.0000000000
2.5688966116	0.8818019629	0.6806787848	0.5749073625	1.7861013412	0.0000000000	0.0000000000	0.0000000000
2.5730668983	0.8818019629	0.6806787848	0.5749073625	1.7861013412	0.0000000000	0.0000000000	0.0000000000
2.5772371851	0.8818019629	0.6806787848	0.5749073625	1.7861013412	0.0000000000	0.0000000000	0.0000000000
2.5814074718	0.8818019629	0.6806787848	0.5749073625	1.7861013412	0.0000000000	0.0000000000	0.0000000000
2.5855777585	0.8818019629	0.6806787848	0.5749073625	1.7861013412	0.0000000000	0.0000000000	0.0000000000
2.5897480452	0.8818019629	0.6806787848	0.5749073625	1.7861013412	0.0000000000	0.0000000000	0.0000000000
2.5939183319	0.8818019629	0.6806787848	0.5749073625	1.7861013412	0.0000000000	0.0000000000	0.0000000000
2.5980886186	0.8818019629	0.6806787848	0.5749073625	1.7861013412	0.0000000000	0.0000000000	0.0000000000
2.6022589053	0.8818019629	0.6806787848	0.5749073625	1.7861013412	0.0000000000	0.0000000000	0.0000000000
2.6064291920	0.8818019629	0.6806787848	0.5749073625	1.7861013412	0.0000000000	0.0000000000	0.0000000000
2.6105994787	0.8818019629	0.6806787848	0.5749073625	1.7861013412	0.0000000000	0.0000000000	0.0000000000
2.6147697654	0.8818019629	0.6806787848	0.5749073625	1.7861013412	0.0000000000	0.0000000000	0.0000000000
2.6189400521	0.8818019629	0.6806787848	0.5749073625	1.7861013412	0.0000000000	0.0000000000	0.0000000000
2.6231103388	0.8818019629	0.6806787848	0.5749073625	1.7861013412	0.0000000000	0.0000000000	0.0000000000
2.6272806255	0.8818019629	0.6806787848	0.5749073625	1.7861013412	0.0000000000	0.0000000000	0.0000000000
2.6314509123	0.8818019629	0.6806787848	0.5749073625	1.7861013412	0.0000000000	0.0000000000	0.0000000000
2.6356211990	0.8818019629	0.6806787848	0.5749073625	1.7861013412	0.0000000000	0.0000000000	0.0000000000
2.6397914857	0.8818019629	0.6806787848	0.5749073625	1.7861013412	0.0000000000	0.0000000000	0.0000000000
2.6439617724	0.8818019629	0.6806787848	0.5749073625	1.7861013412	0.0000000000	0.0000000000	0.0000000000
2.6481320591	0.8818019629	0.6806787848	0.5749073625	1.7861013412	0.0000000000	0.0000000000	0.0000000000
2.6523023458	0.8818019629	0.6806787848	0.5749073625	1.7861013412	0.0000000000	0.0000000000	0.0000000000
2.6564726325	0.8818008304	0.6806793809	0.5749062300	1.7861007452	0.0000000000	0.0000000000	0.0000000000
2.6606429192	0.8817862868	0.6806811094	0.5748974085	1.7861026525	0.0000000000	0.0000000000	0.0000000000
2.6648132059	0.8817493320	0.6806871295	0.5748732686	1.7861064672	0.0000000000	0.0000000000	0.0000000000
2.6689834926	0.8816767931	0.6806979179	0.5748269558	1.7861145735	0.0000000000	0.0000000000	0.0000000000
2.6731537793	0.8815582991	0.6807153821	0.5747514367	1.7861281633	0.0000000000	0.0000000000	0.0000000000
2.6773240660	0.8813835979	0.6807408929	0.5746403337	1.7861484289	0.0000000000	0.0000000000	0.0000000000
2.6814943527	0.8811430335	0.6807758808	0.5744875073	1.7861769199	0.0000000000	0.0000000000	0.0000000000
2.6856646394	0.8808275461	0.6808214784	0.5742874742	1.7862139940	0.0000000000	0.0000000000	0.0000000000
2.6898349262	0.8804287910	0.6808791161	0.5740346313	1.7862614393	0.0000000000	0.0000000000	0.0000000000
2.6940052129	0.8799389005	0.6809499264	0.5737242699	1.7863200903	0.0000000000	0.0000000000	0.0000000000
2.6981754996	0.8793505430	0.6810349822	0.5733516216	1.7863906622	0.0000000000	0.0000000000	0.0000000000
2.7023457863	0.8786570430	0.6811354160	0.5729125738	1.7864737511	0.0000000000	0.0000000000	0.0000000000
2.7065160730	0.8778522611	0.6812521219	0.5724032521	1.7865701914	0.0000000000	0.0000000000	0.0000000000
2.7106863597	0.8769306540	0.6813861132	0.5718200207	1.7866802216	0.0000000000	0.0000000000	0.0000000000
2.7148566464	0.8758871555	0.6815385222	0.5711598396	1.7868043184	0.0000000000	0.0000000000	0.0000000000
2.7190269331	0.8747172952	0.6817101240	0.5704197288	1.7869428396	0.0000000000	0.0000000000	0.0000000000
2.7231972198	0.8734170794	0.6819018126	0.5695971847	1.7870959044	0.0000000000	0.0000000000	0.0000000000
2.7273675065	0.8719829917	0.6821144223	0.5686900020	1.7872632742	0.0000000000	0.0000000000	0.0000000000
2.7315377932	0.8704121709	0.6823490262	0.5676962733	1.7874449492	0.0000000000	0.0000000000	0.0000000000
2.7357080799	0.8687021732	0.6826062202	0.5666143894	1.7876406908	0.0000000000	0.0000000000	0.0000000000
2.7398783666	0.8668509126	0.6828868985	0.5654431581	1.7878503799	0.0000000000	0.0000000000	0.0000000000
2.7440486533	0.8648571372	0.6831918955	0.5641815066	1.7880731821	0.0000000000	0.0000000000	0.0000000000
2.7482189401	0.8627196550	0.6835219860	0.5628287196	1.7883086205	0.0000000000	0.0000000000	0.0000000000
2.7523892268	0.8604379892	0.6838779449	0.5613844395	1.7885562181	0.0000000000	0.0000000000	0.0000000000
2.7565595135	0.8580120206	0.6842604876	0.5598484278	1.7888146639	0.0000000000	0.0000000000	0.0000000000
2.7607298002	0.8554421663	0.6846703887	0.5582209229	1.7890834808	0.0000000000	0.0000000000	0.0000000000
2.7649000869	0.8527290225	0.6851084232	0.5565021634	1.7893613577	0.0000000000	0.0000000000	0.0000000000
2.7690703736	0.8498739004	0.6855752468	0.5546929240	1.7896474600	0.0000000000	0.0000000000	0.0000000000
2.7732406603	0.8468782902	0.6860714555	0.5527940392	1.7899401188	0.0000000000	0.0000000000	0.0000000000
2.7774109470	0.8437441587	0.6865978241	0.5508065820	1.7902384996	0.0000000000	0.0000000000	0.0000000000
2.7815812337	0.8404739499	0.6871548891	0.5487319827	1.7905409336	0.0000000000	0.0000000000	0.0000000000
2.7857515204	0.8370702267	0.6877432466	0.5465716720	1.7908461094	0.0000000000	0.0000000000	0.0000000000
2.7899218071	0.8335359693	0.6883634329	0.5443274975	1.7911523581	0.0000000000	0.0000000000	0.0000000000
2.7940920938	0.8298747540	0.6890160441	0.5420014858	1.7914583683	0.0000000000	0.0000000000	0.0000000000
2.7982623805	0.8260900378	0.6897013783	0.5395957828	1.7917623520	0.0000000000	0.0000000000	0.0000000000
2.8024326672	0.8221859336	0.6904199719	0.5371127129	1.7920627594	0.0000000000	0.0000000000	0.0000000000
2.8066029540	0.8181666732	0.6911721826	0.5345548391	1.7923580408	0.0000000000	0.0000000000	0.0000000000
2.8107732407	0.8140367866	0.6919582486	0.5319247842	1.7926462889	0.0000000000	0.0000000000	0.0000000000
2.8149435274	0.8098010421	0.6927782893	0.5292254686	1.7929259539	0.0000000000	0.0000000000	0.0000000000
2.8191138141	0.8054645658	0.6936326027	0.5264599323	1.7931954861	0.0000000000	0.0000000000	0.0000000000
2.8232841008	0.8010323644	0.6945212483	0.5236312151	1.7934529781	0.0000000000	0.0000000000	0.0000000000
2.8274543875	0.7965101600	0.6954441071	0.5207426548	1.7936968803	0.0000000000	0.0000000000	0.0000000000
2.8316246742	0.7919033170	0.6964012384	0.5177975893	1.7939256430	0.0000000000	0.0000000000	0.0000000000
2.8357949609	0.7872178555	0.6973923445	0.5147994757	1.7941378355	0.0000000000	0.0000000000	0.0000000000
2.8399652476	0.7824594975	0.6984171867	0.5117520094	1.7943316698	0.0000000000	0.0000000000	0.0000000000
2.8441355343	0.7776345015	0.6994754672	0.5086587071	1.7945058346	0.0000000000	0.0000000000	0.0000000000
2.8483058210	0.7727490067	0.7005665302	0.5055234432	1.7946591377	0.0000000000	0.0000000000	0.0000000000
2.8524761077	0.7678093910	0.7016901374	0.5023502707	1.7947899103	0.0000000000	0.0000000000	0.0000000000
2.8566463944	0.7628216743	0.7028453946	0.4991425872	1.7948971987	0.0000000000	0.0000000000	0.0000000000
2.8608166811	0.7577924728	0.7040315866	0.4959045351	1.7949799299	0.0000000000	0.0000000000	0.0000000000
2.8649869679	0.7527282834	0.7052478194	0.4926399887	1.7950369120	0.0000000000	0.0000000000	0.0000000000
2.8691572546	0.7476355433	0.7064930201	0.4893529713	1.7950671911	0.0000000000	0.0000000000	0.0000000000
2.8733275413	0.7425207496	0.7077661753	0.4860474765	1.7950701714	0.0000000000	0.0000000000	0.0000000000
2.8774978280	0.7373903990	0.7090660334	0.4827274680	1.7950451374	0.0000000000	0.0000000000	0.0000000000
